<?xml version="1.0" ?><!DOCTYPE svg  PUBLIC '-//W3C//DTD SVG 1.1//EN'  'http://www.w3.org/Graphics/SVG/1.1/DTD/svg11.dtd'><svg enable-background="new 0 0 48 48" height="48px" version="1.1" viewBox="0 0 48 48" width="48px" xml:space="preserve" xmlns="http://www.w3.org/2000/svg" xmlns:xlink="http://www.w3.org/1999/xlink"><g id="Layer_4"><g><circle cx="10.18" cy="44.977" fill="#241F20" r="2.995"/><circle cx="37.736" cy="44.977" fill="#241F20" r="2.995"/><polygon fill="#241F20" points="24.59,16.246 23.092,16.246 22.221,16.246 22.221,17.117 22.221,17.832 25.705,17.832     25.705,17.117 25.705,16.246 24.833,16.246   "/><path d="M40.696,37.155V3.427v-0.61V0.028h-2.79H10.017h-2.79v2.789v1.398v32.94h-3.55v3.569h40.645v-3.569H40.696    z M33.545,20.228v0.938v9.977v0.662v2.894H14.381v-2.894v-0.662V20.969v-0.742v-2.396h2.396h0.256h3.917v-0.956v-0.395v-0.688    v-0.819h1.24h0.267h3.012h1.508v0.019v0.8v0.688v1.351h4.172h2.396V20.228z" fill="#241F20"/></g></g></svg>