<?xml version="1.0" ?><!DOCTYPE svg  PUBLIC '-//W3C//DTD SVG 1.1//EN'  'http://www.w3.org/Graphics/SVG/1.1/DTD/svg11.dtd'><svg enable-background="new 0 0 512 512" id="Layer_1" version="1.1" viewBox="0 0 512 512" xml:space="preserve" xmlns="http://www.w3.org/2000/svg" xmlns:xlink="http://www.w3.org/1999/xlink"><circle cx="256" cy="256" fill="#222A30" id="ellipse" r="256"/><g id="logo"><path d="M127.3,187l126.4,60.8c1.5,0.7,3.2,0.7,4.6,0L384.7,187c4-1.9,4-7.7,0-9.6l-126.4-60.8   c-1.5-0.7-3.2-0.7-4.6,0l-126.4,60.8C123.2,179.3,123.2,185.1,127.3,187z" fill="#FFFFFF"/><path d="M127.3,260.8l126.4,60.8c1.5,0.7,3.2,0.7,4.6,0l126.4-60.8c4-1.9,4-7.7,0-9.6l-26.7-12.8l-84.7,40.8   c-5.4,2.6-11.4,4-17.4,4c-6,0-12-1.4-17.4-4l-84.7-40.8l-26.7,12.8C123.2,253.1,123.2,258.9,127.3,260.8z" fill="#FFFFFF"/><path d="M384.7,325l-26.7-12.8l-84.7,40.8c-5.4,2.6-11.4,4-17.4,4c-6,0-12-1.4-17.4-4l-84.7-40.8L127.3,325   c-4,1.9-4,7.7,0,9.6l126.4,60.8c1.5,0.7,3.2,0.7,4.6,0l126.4-60.8C388.8,332.7,388.8,326.9,384.7,325z" fill="#FFFFFF"/></g></svg>